<svg t="1693030264031" class="icon" viewBox="0 0 1024 1024" version="1.1" xmlns="http://www.w3.org/2000/svg" p-id="5341" width="128" height="128"><path d="M910.9 958.5H278.3c-29.9 0-54.2-24.3-54.2-54.2v-787c0-29.9 24.3-54.2 54.2-54.2h491.3c10 0 18.1 8.1 18.1 18.1v135.6H947c10 0 18.1 8.1 18.1 18.1v669.4c0 29.8-24.3 54.2-54.2 54.2zM278.3 99.3c-10 0-18.1 8.1-18.1 18.1v786.9c0 10 8.1 18.1 18.1 18.1h632.6c10 0 18.1-8.1 18.1-18.1V252.9H769.5c-10 0-18.1-8.1-18.1-18.1V99.3H278.3z" fill="#B56B00" p-id="5342"></path><path d="M947.4 253H769.9c-10 0-18.1-8.1-18.1-18.1V81.2c0-7.1 4.1-13.5 10.6-16.4 6.4-2.9 14-1.9 19.3 2.8L801.9 85c0.2 0.1 0.3 0.3 0.5 0.4l156.9 135.8c5.7 4.9 7.7 12.9 5.1 20-2.7 7.1-9.4 11.8-17 11.8zM788 216.8h111l-111-96.1v96.1zM664.5 781.5H79.4c-11.4 0-20.7-9.3-20.7-20.7V490.6c0-11.4 9.3-20.7 20.7-20.7h585.2c11.4 0 20.7 9.3 20.7 20.7v270.2c-0.1 11.4-9.4 20.7-20.8 20.7z" fill="#B56B00" p-id="5343"></path><path d="M81.7 522.9h68.8c42.7 0 75.3 12.4 75.3 51.1 0 19.1-10.7 38.8-28.4 45v1.4c22.5 5.3 39.1 21.1 39.1 49.2 0 41.9-34.8 61.3-80.6 61.3H81.7v-208z m65.8 84.6c26.4 0 37.9-10.7 37.9-27.3 0-18.3-12.4-25.6-37.4-25.6h-24.7v52.8h24.2z m4.7 91.3c28.4 0 43.8-10.1 43.8-31.8 0-20.2-15.2-28.7-43.8-28.7h-28.9v60.4h28.9zM273.1 522.9h46.1l35.4 97.2c4.5 12.9 8.4 26.7 12.6 40.2h1.4c4.5-13.5 8.1-27.3 12.6-40.2l34.6-97.2h46.1v207.9H424V644c0-19.7 3.1-48.6 5.1-68.3H428l-17 49-32 87.4h-23.9l-32.3-87.4-16.6-48.9h-1.1c2 19.7 5.3 48.6 5.3 68.3v86.8H273v-208zM513 522.9h68.3c46.1 0 81.5 16 81.5 65.2 0 47.5-35.7 68.8-80.4 68.8h-27.8v73.9H513V522.9z m66.6 101.2c28.7 0 42.4-12.1 42.4-36 0-24.2-15.2-32.3-43.8-32.3h-23.6v68.3h25z" fill="#FFFFFF" p-id="5344"></path></svg>
