<svg t="1693571938432" class="icon" viewBox="0 0 1024 1024" version="1.1" xmlns="http://www.w3.org/2000/svg" p-id="2580" width="128" height="128"><path d="M945.664 913.408h-353.28l369.664-369.664c15.872-15.872 15.872-41.984 0-57.856-15.872-15.872-41.984-15.872-57.856 0l-350.72 350.72V69.12c0-22.528-18.432-40.96-40.96-40.96s-40.96 18.432-40.96 40.96v767.488L121.344 485.376c-15.872-15.872-41.984-15.872-57.856 0-15.872 15.872-15.872 41.984 0 57.856l369.664 369.664h-353.28c-22.528 0-40.96 18.432-40.96 40.96s18.432 40.96 40.96 40.96h866.304c22.528 0 40.96-18.432 40.96-40.96s-18.432-40.448-41.472-40.448z" fill="#8a8a8a" p-id="2581"></path></svg>