<svg t="1692937541785" class="icon" viewBox="0 0 1024 1024" version="1.1" xmlns="http://www.w3.org/2000/svg" p-id="6041" width="128" height="128"><path d="M249.344 497.664v29.696c0 14.848 11.776 26.624 26.624 26.624h692.224c14.848 0 26.624-11.776 26.624-26.624v-29.696c0-14.848-11.776-26.624-26.624-26.624H275.968c-14.848 0.512-26.624 12.288-26.624 26.624z" fill="#4e8cff" p-id="6042"></path><path d="M146.944 530.944c-10.24-10.24-10.24-27.136 0-37.376l369.664-368.64c10.24-10.24 10.24-27.136 0-37.376l-21.504-21.504c-10.24-10.24-27.136-10.24-37.376 0L42.496 479.744c8.192-7.68 18.944-12.288 30.72-12.288-24.576 0-44.544 19.968-44.544 44.544s19.968 44.544 44.544 44.544c-12.288 0-23.04-4.608-31.232-12.8l414.208 414.208c10.24 10.24 27.136 10.24 37.376 0l21.504-21.504c10.24-10.24 10.24-27.136 0-37.376l-368.128-368.128z" fill="#4e8cff" p-id="6043"></path></svg>
