<svg t="1693031409162" class="icon" viewBox="0 0 1024 1024" version="1.1" xmlns="http://www.w3.org/2000/svg" p-id="20024" width="128" height="128"><path d="M661.504 36.864v239.616h239.616z" fill="#2B9FF6" p-id="20025"></path><path d="M612.352 329.728V18.432H194.56C157.696 18.432 131.072 47.104 131.072 83.968v870.4c0 36.864 28.672 67.584 63.488 67.584h649.216c36.864 0 63.488-30.72 63.488-67.584V327.68l-294.912 2.048z" fill="#2B9FF6" p-id="20026"></path><path d="M407.552 552.96h51.2v206.848c0 34.816-8.192 61.44-22.528 77.824-16.384 18.432-43.008 26.624-77.824 26.624-30.72 0-55.296-8.192-69.632-26.624-16.384-16.384-24.576-40.96-24.576-71.68v-10.24h51.2v10.24c0 34.816 14.336 53.248 45.056 53.248 16.384 0 28.672-4.096 36.864-14.336s12.288-26.624 12.288-47.104V552.96z m217.088-6.144c36.864 0 65.536 8.192 83.968 22.528 22.528 16.384 34.816 40.96 36.864 73.728h-49.152c-4.096-18.432-12.288-32.768-24.576-40.96-10.24-8.192-28.672-12.288-51.2-12.288-20.48 0-34.816 2.048-45.056 8.192-12.288 6.144-18.432 16.384-18.432 32.768 0 14.336 6.144 24.576 20.48 30.72 6.144 4.096 24.576 10.24 53.248 18.432 40.96 12.288 67.584 22.528 79.872 30.72 26.624 16.384 40.96 36.864 40.96 65.536 0 26.624-10.24 49.152-32.768 65.536-22.528 16.384-51.2 24.576-92.16 24.576-36.864 0-67.584-8.192-88.064-22.528-26.624-18.432-40.96-47.104-43.008-86.016h49.152c4.096 22.528 12.288 40.96 24.576 49.152 12.288 8.192 30.72 14.336 55.296 14.336 22.528 0 40.96-4.096 53.248-10.24 12.288-8.192 20.48-18.432 20.48-30.72 0-16.384-10.24-28.672-28.672-38.912-6.144-4.096-26.624-10.24-59.392-20.48-38.912-12.288-61.44-20.48-69.632-26.624-22.528-14.336-34.816-34.816-34.816-61.44s12.288-49.152 34.816-63.488c22.528-14.336 49.152-22.528 83.968-22.528z" fill="#FFFFFF" p-id="20027"></path></svg>