<svg t="1693031206191" class="icon" viewBox="0 0 1024 1024" version="1.1" xmlns="http://www.w3.org/2000/svg" p-id="8377" width="128" height="128"><path d="M332.796922 686.083126m-332.796922 0a332.796922 332.796922 0 1 0 665.593843 0 332.796922 332.796922 0 1 0-665.593843 0Z" fill="#CCE4F2" p-id="8378"></path><path d="M883.19183 1024h-639.99408A141.054695 141.054695 0 0 1 102.399053 883.201302v-742.393132A141.054695 141.054695 0 0 1 243.19775 0.009472h516.347224a88.319183 88.319183 0 0 1 63.487413 25.599763l189.694245 189.694245A38.399645 38.399645 0 0 1 1023.990528 243.207222v639.99408a141.054695 141.054695 0 0 1-140.798698 140.798698zM243.19775 76.808762A63.999408 63.999408 0 0 0 179.198342 140.80817v742.393132A63.999408 63.999408 0 0 0 243.19775 947.20071h639.99408a63.999408 63.999408 0 0 0 63.999408-63.999408V259.079076l-179.198342-179.198343a13.055879 13.055879 0 0 0-8.447922-3.071971z" fill="#434260" p-id="8379"></path><path d="M383.996448 598.01994c-39.935631 0-65.023399-32.767697-65.023399-86.527199s26.879751-85.503209 66.04739-85.503209a59.135453 59.135453 0 0 1 44.031592 20.223813l19.45582-22.78379A87.295193 87.295193 0 0 0 383.996448 394.75782c-57.087472 0-102.399053 44.28759-102.399053 118.014909s43.519597 116.478923 100.351072 116.478922a89.343174 89.343174 0 0 0 70.399349-32.767696l-19.199823-22.271794a65.023399 65.023399 0 0 1-49.151545 23.807779zM560.378816 398.853783h-68.607365v226.301906h35.583671v-85.759206h34.047685c49.151545 0 85.247211-22.527792 85.247211-72.191333s-36.095666-68.351368-86.271202-68.351367zM558.074838 512.004736h-30.719716v-84.223221h29.439728c36.095666 0 54.783493 9.72791 54.783493 39.423635S594.426502 512.004736 558.074838 512.004736zM759.032979 398.853783H691.193606v226.301906h35.583671v-85.759206h33.53569c49.151545 0 84.991214-22.527792 84.991214-72.191333s-35.839668-68.351368-86.271202-68.351367zM756.984998 512.004736h-30.719716v-84.223221h29.439728c35.839668 0 54.527496 9.72791 54.527495 39.423635S793.592659 512.004736 756.984998 512.004736z" fill="#434260" p-id="8380"></path></svg>
