<svg t="1693572133723" class="icon" viewBox="0 0 1024 1024" version="1.1" xmlns="http://www.w3.org/2000/svg" p-id="3807" width="128" height="128"><path d="M774 400H251.6c-41.2 0-74.6-33.5-74.6-74.6v-37.3c0-61.7 50.2-111.9 111.9-111.9h447.7c61.7 0 111.9 50.2 111.9 111.9v37.3c0.1 41.1-33.4 74.6-74.5 74.6M288.9 250.8c-20.6 0-37.3 16.8-37.3 37.3v37.3H774v-37.3c0-20.5-16.7-37.3-37.3-37.3H288.9z" fill="#8a8a8a" p-id="3808"></path><path d="M699.3 959.7H326.2c-61.7 0-111.9-50.2-111.9-111.9v-485c0-20.6 16.7-37.3 37.3-37.3s37.3 16.7 37.3 37.3v485c0 20.5 16.7 37.3 37.3 37.3h373.1c20.6 0 37.3-16.8 37.3-37.3V511.9c0-20.6 16.7-37.3 37.3-37.3s37.3 16.7 37.3 37.3v335.8c0 61.7-50.1 112-111.9 112M363.5 250.8c-20.6 0-37.3-16.7-37.3-37.3v-74.6c0-41.2 33.4-74.6 74.6-74.6h223.9c41.1 0 74.6 33.5 74.6 74.6v68.4c0 20.7-16.7 37.3-37.3 37.3s-37.3-16.7-37.3-37.3v-68.4H400.9v74.6c0 20.5-16.7 37.3-37.4 37.3" fill="#8a8a8a" p-id="3809"></path><path d="M400.9 922.3c-20.6 0-37.3-16.7-37.3-37.3V474.6c0-20.6 16.7-37.3 37.3-37.3 20.6 0 37.3 16.7 37.3 37.3V885c0 20.6-16.7 37.3-37.3 37.3M624.7 810.4c-20.6 0-37.3-16.7-37.3-37.3V362.7c0-20.6 16.7-37.3 37.3-37.3s37.3 16.7 37.3 37.3v410.4c0 20.6-16.7 37.3-37.3 37.3" fill="#8a8a8a" p-id="3810"></path></svg>