<svg t="1693031326472" class="icon" viewBox="0 0 1024 1024" version="1.1" xmlns="http://www.w3.org/2000/svg" p-id="14887" width="128" height="128"><path d="M862 902c0 16.569-13.431 30-30 30H192c-16.569 0-30-13.431-30-30V122c0-16.569 13.431-30 30-30h476l194 194v616z" fill="#7DB4FF" p-id="14888"></path><path d="M862 286H698c-16.569 0-30-13.431-30-30V92" fill="#FFFFFF" fill-opacity=".296" p-id="14889"></path><path d="M403.76 540.84c0-44.48-13.76-75.84-73.92-75.84-54.08 0-85.44 19.52-85.44 89.6s31.36 89.6 84.16 89.6c30.08 0 56-6.08 66.24-12.16v-36.48c-11.2 6.08-36.16 12.16-57.28 12.16-30.72 0-45.12-11.2-46.72-35.84l111.36-7.04c0.96-4.8 1.6-14.08 1.6-24z m-112.96-1.28c0.96-27.2 10.56-39.68 39.04-39.68 27.2 0 31.68 15.36 31.68 34.24l-70.72 5.44zM420.4 641h54.72l36.48-59.52h1.92L549.36 641h55.04l-59.2-88.64 56-84.16h-53.76l-33.6 56.32h-1.92l-33.6-56.32h-54.4l56.32 84.48zM781.04 540.84c0-44.48-13.76-75.84-73.92-75.84-54.08 0-85.44 19.52-85.44 89.6s31.36 89.6 84.16 89.6c30.08 0 56-6.08 66.24-12.16v-36.48c-11.2 6.08-36.16 12.16-57.28 12.16-30.72 0-45.12-11.2-46.72-35.84l111.36-7.04c0.96-4.8 1.6-14.08 1.6-24z m-112.96-1.28c0.96-27.2 10.56-39.68 39.04-39.68 27.2 0 31.68 15.36 31.68 34.24l-70.72 5.44z" fill="#FFFFFF" p-id="14890"></path></svg>