<svg t="1693580189909" class="icon" viewBox="0 0 1024 1024" version="1.1" xmlns="http://www.w3.org/2000/svg" p-id="9016" width="128" height="128"><path d="M484.3 473.3H45.1V34.1h439.2v439.2zM78.9 439.6h371.7V67.9H78.9v371.7zM979.9 473.3H540.7V34.1h439.2v439.2z m-405.5-33.7h371.7V67.9H574.4v371.7zM484.3 968.9H45.1V529.7h439.2v439.2zM78.9 935.1h371.7V563.4H78.9v371.7zM979.9 968.9H540.7V529.7h439.2v439.2z m-405.5-33.8h371.7V563.4H574.4v371.7z" fill="#8a8a8a" p-id="9017"></path><path d="M901.1 161.7h33.8v16.9h-33.8zM934.8 126.1h-33.7v-13.2H647.7V79.2h287.1z" fill="#8a8a8a" p-id="9018"></path></svg>